HIERARCHY
ROOT base
{
	OFFSET 0.0 0.0 0.0
	CHANNELS 6 Xposition Yposition Zposition Zrotation Yrotation Xrotation
	JOINT root
	{
		OFFSET 0 0 0
		CHANNELS 6 Xposition Yposition Zposition Zrotation Yrotation Xrotation
		JOINT chest
		{
			OFFSET 0 4.72302 0
			CHANNELS 3 Zrotation Yrotation Xrotation
			JOINT neck
			{
				OFFSET 0 4.47788 0
				CHANNELS 3 Zrotation Yrotation Xrotation
				End Site
				{
					OFFSET 0.0 0.0 0.0
				}
			}
			JOINT right_shoulder
			{
				OFFSET -0.481 4.87 3.6622
				CHANNELS 3 Zrotation Yrotation Xrotation
				JOINT right_elbow
				{
					OFFSET 0 -5.49576 0
					CHANNELS 3 Zrotation Yrotation Xrotation
					JOINT right_wrist
					{
						OFFSET 0 -5.17894 0
						CHANNELS 3 Zrotation Yrotation Xrotation
						End Site
						{
							OFFSET 0.0 0.0 0.0
						}
					}
				}
			}
			JOINT left_shoulder
			{
				OFFSET -0.481 4.87 -3.6622
				CHANNELS 3 Zrotation Yrotation Xrotation
				JOINT left_elbow
				{
					OFFSET 0 -5.49576 0
					CHANNELS 3 Zrotation Yrotation Xrotation
					JOINT left_wrist
					{
						OFFSET 0 -5.17894 0
						CHANNELS 3 Zrotation Yrotation Xrotation
						End Site
						{
							OFFSET 0.0 0.0 0.0
						}
					}
				}
			}
		}
		JOINT right_hip
		{
			OFFSET 0 0 1.69774
			CHANNELS 3 Zrotation Yrotation Xrotation
			JOINT right_knee
			{
				OFFSET 0 -8.43092 0
				CHANNELS 3 Zrotation Yrotation Xrotation
				JOINT right_ankle
				{
					OFFSET 0 -8.1974 0
					CHANNELS 3 Zrotation Yrotation Xrotation
					End Site
					{
						OFFSET 0.0 0.0 0.0
					}
				}
			}
		}
		JOINT left_hip
		{
			OFFSET 0 0 -1.69774
			CHANNELS 3 Zrotation Yrotation Xrotation
			JOINT left_knee
			{
				OFFSET 0 -8.43092 0
				CHANNELS 3 Zrotation Yrotation Xrotation
				JOINT left_ankle
				{
					OFFSET 0 -8.1974 0
					CHANNELS 3 Zrotation Yrotation Xrotation
					End Site
					{
						OFFSET 0.0 0.0 0.0
					}
				}
			}
		}
	}
	JOINT red_arrow
	{
		OFFSET 0 0 0
		CHANNELS 3 Zrotation Yrotation Xrotation
		End Site
		{
			OFFSET 0.0 0.0 0.0
		}
	}
	JOINT blue_arrow
	{
		OFFSET 0 0 0
		CHANNELS 3 Zrotation Yrotation Xrotation
		End Site
		{
			OFFSET 0.0 0.0 0.0
		}
	}
}
MOTION
Frames: 7
Frame Time: 0.0333333333333333
174.655288021266 0 -48.4429614335299 0 21.1487168704608 0 0 17.0571828722954 0 -6.07053709560074 3.00710588697397 0.853580415964876 -1.27858655123259 -0.805703728876416 9.80367962026766 3.74258829987552 0.272144415997281 0.298375942895031 -15.8976312978432 -8.25508139486871 -12.315473371375 7.98793867772847 0 0 0 0 0 9.44377576967797 -34.6638779088621 24.8841472340332 35.1780082257477 0 0 0 0 0 44.4365268155328 -8.44598090937154 -10.0723036144863 -35.3155784809156 0 0 1.63292077819001 -4.05274873250364 -4.31694842966141 -8.43844676712804 15.1814028924003 0.115411928090447 0.00115694645856272 0 0 15.0501038175718 -14.6961473605394 -5.17435537907907 0 0 0 0 0 0
175.320671251416 0 -48.4342866688967 0 21.2520088057994 0 0 16.8800675749779 0 -7.56185034955839 1.94549242451054 0.616293376453759 -2.37093352027022 -0.0535299307244014 9.44865118713159 4.00344039999174 1.02139663140915 0.68937382755667 -15.9202004562828 -9.04284933886219 -11.8833341780298 7.28550238669049 0 0 0 0 0 10.1856568356892 -35.1765591445041 25.0853653791118 36.8451925153507 0 0 0 0 0 41.5320915361859 -10.5743241892157 -7.79378629212344 -24.9524381042206 0 0 -0.0664776599167481 -1.75729912873637 -3.42035488626512 -8.96511933813217 15.7334074935428 1.14119312810132 0.00097933444283428 0 0 17.325620932851 -13.8215861272626 -6.5527680176521 0 0 0 0 0 0
176.040089398623 0 -48.4304129615426 0 21.3062251721325 0 0 16.6483682870865 0 -9.1176436982778 1.01709831831006 0.533868210919707 -3.41667844858513 0.803190608128896 8.99741731120961 4.10471383685164 1.91142511742534 0.823788855831325 -15.6531978638183 -9.64105532305192 -11.3929006999479 6.91697526115423 0 0 0 0 0 10.5455843585176 -35.2585876403761 24.8583022696269 38.138601532814 0 0 0 0 0 37.20806656257 -11.5456399321233 -5.10679237459204 -15.7116241666583 0 0 -3.18610586854193 1.37298801994047 -1.20086772947265 -9.26833536450539 15.6519237060457 2.1687804736339 -0.846195764810876 0 0 20.1756545875967 -12.3435271514697 -7.79587370154878 0 0 0 0 0 0
176.619783452153 0 -48.3074513152242 0 21.1580359136819 0 0 16.6219739317894 0 -11.8070343454875 -2.75611715029112 -1.08295525438381 -4.35451675326424 3.20014406338338 9.82812132679052 3.19826387205908 3.1776599589157 1.19536658989559 -14.1934313902722 -9.54051321415622 -11.1763277110294 7.49044989669954 0 0 0 0 0 11.0415435882082 -35.3595494397238 23.9790650079669 38.5552977136981 0 0 0 0 0 36.3316749047492 -11.0386196533553 -0.190967268981441 -12.2134625285135 0 0 -12.2938105637032 2.26890387716608 -2.77849387031804 -7.80683763005733 17.110026136021 4.43790310766007 -1.4763462428719 0 0 19.9169172327071 -10.439868721986 -7.0931544280352 0 0 0 0 0 0
177.229993218184 0 -48.2741712361574 0 20.8637945417271 0 0 16.7904950857162 0 -13.2750430917691 -5.44210898616123 -1.67207716996242 -3.77866236101694 2.96643280409106 8.49927884675722 1.82985111019061 2.64530186835473 1.25708484942085 -13.7772180430687 -9.1972806139316 -10.4787899157156 8.40099949042687 0 0 0 0 0 9.73632689979203 -34.3830130297378 22.6342845645418 38.3438828683187 0 0 0 0 0 33.6598150615965 -10.3543788785833 3.03469819545378 -8.64391772957931 0 0 -12.2180168497776 3.49620185818437 -3.60868044944279 -6.07098039332011 16.4837253301861 5.4469300037335 -5.78395402644172 0 0 16.198233428365 -10.4394911391591 -4.35635183971065 0 0 0 0 0 0
177.955599364638 0 -48.273484236002 0 20.4292261771141 0 0 16.9238575100899 0 -12.8180967175738 -8.05376743423924 -2.46715279094597 -3.07219395610929 0.726407477303903 7.06597910366895 1.50610375850245 1.60481712863956 0.978046243090404 -13.0612424619472 -1.00474124658581 -9.89194234886269 9.72745979328378 0 0 0 0 0 7.65450774116468 -29.2025569679651 21.0343092181417 37.3188866248586 0 0 0 0 0 30.4291758815638 -8.0591344403484 5.93653078088096 -8.18369360688833 0 0 -10.1896638917336 3.52677219884205 -3.94567153078225 -4.80795152545209 15.4587095621107 6.52689698698762 -12.5920044189203 0 0 13.2785843965975 -7.75084592276724 -0.0580132322129171 0 0 0 0 0 0
178.692447635531 0 -48.2947517558932 0 19.8860167081004 0 0 17.036847949028 0 -11.6368590685452 -10.1132625908601 -3.21321605421824 -2.11921661852572 -1.27476211321911 5.5466727589113 1.61968202555083 0.620632875628884 0.692507609007281 -12.1255896415524 5.00746128338721 -9.13270000837244 11.2334396656434 0 0 0 0 0 5.51082770872339 -24.7547543767623 19.2762993526127 35.8236216117594 0 0 0 0 0 27.1037726110598 -5.42905778878267 8.11345295873595 -8.57359410188486 0 0 -7.66424710745768 3.19589867061115 -4.10602661406985 -2.65451654865914 13.731051795089 7.78389074861651 -20.4034586924585 0 0 9.88252172718249 -7.40903265619919 2.24184071509822 0 0 0 0 0 0
